<?xml version="1.0" encoding="UTF-8" standalone="no"?>
<svg
   width="1008pt"
   height="576pt"
   viewBox="0 0 1008 576"
   version="1.1"
   id="svg136"
   sodipodi:docname="timer_app_wireframe.svg"
   inkscape:version="1.4 (e7c3feb1, 2024-10-09)"
   xmlns:inkscape="http://www.inkscape.org/namespaces/inkscape"
   xmlns:sodipodi="http://sodipodi.sourceforge.net/DTD/sodipodi-0.dtd"
   xmlns:xlink="http://www.w3.org/1999/xlink"
   xmlns="http://www.w3.org/2000/svg"
   xmlns:svg="http://www.w3.org/2000/svg"
   xmlns:rdf="http://www.w3.org/1999/02/22-rdf-syntax-ns#"
   xmlns:cc="http://creativecommons.org/ns#"
   xmlns:dc="http://purl.org/dc/elements/1.1/">
  <sodipodi:namedview
     id="namedview136"
     pagecolor="#ffffff"
     bordercolor="#000000"
     borderopacity="0.25"
     inkscape:showpageshadow="2"
     inkscape:pageopacity="0.0"
     inkscape:pagecheckerboard="0"
     inkscape:deskcolor="#d1d1d1"
     inkscape:document-units="pt"
     inkscape:zoom="1.5783664"
     inkscape:cx="887.62657"
     inkscape:cy="419.42098"
     inkscape:window-width="1440"
     inkscape:window-height="847"
     inkscape:window-x="0"
     inkscape:window-y="25"
     inkscape:window-maximized="1"
     inkscape:current-layer="figure_1" />
  <metadata
     id="metadata1">
    <rdf:RDF>
      <cc:Work>
        <dc:type
           rdf:resource="http://purl.org/dc/dcmitype/StillImage" />
        <dc:date>2025-03-20T06:33:49.730955</dc:date>
        <dc:format>image/svg+xml</dc:format>
        <dc:creator>
          <cc:Agent>
            <dc:title>Matplotlib v3.6.3, https://matplotlib.org/</dc:title>
          </cc:Agent>
        </dc:creator>
      </cc:Work>
    </rdf:RDF>
  </metadata>
  <defs
     id="defs1">
    <rect
       x="934.51049"
       y="240.12168"
       width="59.555246"
       height="17.73986"
       id="rect144" />
    <rect
       x="890.16084"
       y="237.58741"
       width="31.678321"
       height="19.640559"
       id="rect143" />
    <rect
       x="937.67832"
       y="131.14825"
       width="110.24056"
       height="29.144056"
       id="rect142" />
    <rect
       x="328.18741"
       y="54.486713"
       width="154.59021"
       height="36.746853"
       id="rect140" />
    <rect
       x="338.30769"
       y="455.07692"
       width="45"
       height="18"
       id="rect139" />
    <rect
       x="337.45311"
       y="452.98348"
       width="39.815551"
       height="22.192274"
       id="rect138" />
    <rect
       x="344.63297"
       y="133.80636"
       width="120.75208"
       height="24.80313"
       id="rect137" />
    <style
       type="text/css"
       id="style1">*{stroke-linejoin: round; stroke-linecap: butt}</style>
    <rect
       x="890.16083"
       y="237.58742"
       width="31.678322"
       height="19.640558"
       id="rect143-3" />
    <rect
       x="934.5105"
       y="240.12167"
       width="39.281118"
       height="16.472728"
       id="rect144-7" />
    <rect
       x="890.16083"
       y="237.58742"
       width="31.678322"
       height="19.640558"
       id="rect143-0" />
    <rect
       x="934.5105"
       y="240.12167"
       width="38.013985"
       height="17.106295"
       id="rect144-79" />
    <rect
       x="890.16083"
       y="237.58742"
       width="37.38042"
       height="17.739859"
       id="rect143-5" />
    <rect
       x="890.16083"
       y="237.58742"
       width="121.64475"
       height="21.541257"
       id="rect143-6" />
  </defs>
  <g
     id="figure_1"
     style="display:inline">
    <g
       id="patch_1"
       style="display:inline">
      <path
         d="M 0,576 H 1008 V 0 H 0 Z"
         style="fill:#dddddd"
         id="path1" />
    </g>
    <g
       id="axes_1"
       style="display:inline">
      <g
         id="patch_2">
        <path
           d="m 232.52727,490.464 h 142.03637 q 35.50909,0 35.50909,-22.176 V 113.472 q 0,-22.176 -35.50909,-22.176 H 232.52727 q -35.50909,0 -35.50909,22.176 v 354.816 q 0,22.176 35.50909,22.176 z"
           clip-path="url(#pd1c3f5468e)"
           style="fill:#ffffff;stroke:#000000;stroke-width:2;stroke-linejoin:miter"
           id="path2" />
      </g>
      <g
         id="text_1"
         style="display:inline">
        <g
           id="patch_3"
           style="display:inline">
          <path
             d="m 257.47452,120.44356 h 92.14187 V 98.774187 h -92.14187 z"
             style="fill:#d3d3d3;stroke:#000000;stroke-linejoin:miter"
             id="path3" />
        </g>
        <!-- アプリ名（ヘッダー） -->
        <text
           xml:space="preserve"
           id="text137"
           style="font-style:normal;font-variant:normal;font-weight:normal;font-stretch:normal;font-size:18.6667px;font-family:'Hiragino Maru Gothic Pro';-inkscape-font-specification:'Hiragino Maru Gothic Pro';text-align:start;writing-mode:lr-tb;direction:ltr;white-space:pre;shape-inside:url(#rect137);display:inline;fill:#000000;stroke-linecap:butt;stroke-linejoin:round"
           transform="matrix(0.75,0,0,0.75,17.133743,0.48953547)"><tspan
             x="344.63281"
             y="152.56667"
             id="tspan3">タイマー</tspan></text>
      </g>
      <g
         id="text_2"
         transform="matrix(0.91910176,0,0,0.91910176,24.528648,13.14829)">
        <!-- 00:15:23 -->
        <g
           style="fill:#333333"
           transform="matrix(0.48,0,0,-0.48,195.75545,180)"
           id="g20">
          <defs
             id="defs12">
            <path
               id="DejaVuSans-30"
               d="m 2034,4250 q -487,0 -733,-480 -245,-479 -245,-1442 0,-959 245,-1439 246,-480 733,-480 491,0 736,480 246,480 246,1439 0,963 -246,1442 -245,480 -736,480 z m 0,500 q 785,0 1199,-621 414,-620 414,-1801 0,-1178 -414,-1799 -414,-620 -1199,-620 -784,0 -1198,620 -414,621 -414,1799 0,1181 414,1801 414,621 1198,621 z"
               transform="scale(0.015625)" />
            <path
               id="DejaVuSans-3a"
               d="m 750,794 h 659 V 0 H 750 Z m 0,2515 h 659 V 2516 H 750 Z"
               transform="scale(0.015625)" />
            <path
               id="DejaVuSans-31"
               d="M 794,531 H 1825 V 4091 L 703,3866 v 575 l 1116,225 h 631 V 531 H 3481 V 0 H 794 Z"
               transform="scale(0.015625)" />
            <path
               id="DejaVuSans-35"
               d="M 691,4666 H 3169 V 4134 H 1269 V 2991 q 137,47 274,70 138,23 276,23 781,0 1237,-428 457,-428 457,-1159 Q 3513,744 3044,326 2575,-91 1722,-91 1428,-91 1123,-41 819,9 494,109 v 635 q 281,-153 581,-228 300,-75 634,-75 541,0 856,284 316,284 316,772 0,487 -316,771 -315,285 -856,285 -253,0 -505,-56 -251,-56 -513,-175 z"
               transform="scale(0.015625)" />
            <path
               id="DejaVuSans-32"
               d="M 1228,531 H 3431 V 0 H 469 v 531 q 359,372 979,998 621,627 780,809 303,340 423,576 121,236 121,464 0,372 -261,606 -261,235 -680,235 -297,0 -627,-103 -329,-103 -704,-313 v 638 q 381,153 712,231 332,78 607,78 725,0 1156,-363 431,-362 431,-968 0,-288 -108,-546 -107,-257 -392,-607 -78,-91 -497,-524 Q 1991,1309 1228,531 Z"
               transform="scale(0.015625)" />
            <path
               id="DejaVuSans-33"
               d="m 2597,2516 q 453,-97 707,-404 255,-306 255,-756 0,-690 -475,-1069 -475,-378 -1350,-378 -293,0 -604,58 -311,58 -642,174 v 609 q 262,-153 574,-231 313,-78 654,-78 593,0 904,234 311,234 311,681 0,413 -289,645 -289,233 -804,233 h -544 v 519 h 569 q 465,0 712,186 247,186 247,536 0,359 -255,551 -254,193 -729,193 -260,0 -557,-57 -297,-56 -653,-174 v 562 q 360,100 674,150 314,50 592,50 719,0 1137,-327 419,-326 419,-882 0,-388 -222,-655 -222,-267 -631,-370 z"
               transform="scale(0.015625)" />
          </defs>
          <use
             xlink:href="#DejaVuSans-30"
             id="use13" />
          <use
             xlink:href="#DejaVuSans-30"
             x="63.623047"
             id="use14" />
          <use
             xlink:href="#DejaVuSans-3a"
             x="127.24609"
             id="use15" />
          <use
             xlink:href="#DejaVuSans-31"
             x="160.9375"
             id="use16" />
          <use
             xlink:href="#DejaVuSans-35"
             x="224.56055"
             id="use17" />
          <use
             xlink:href="#DejaVuSans-3a"
             x="288.18359"
             id="use18" />
          <use
             xlink:href="#DejaVuSans-32"
             x="321.875"
             id="use19" />
          <use
             xlink:href="#DejaVuSans-33"
             x="385.49805"
             id="use20" />
        </g>
      </g>
      <g
         id="text_3">
        <g
           id="patch_4">
          <path
             d="m 268.03636,355.55075 c 8.31578,0 16.29208,-3.30389 22.17222,-9.18403 5.88014,-5.88014 9.18403,-13.85645 9.18403,-22.17222 0,-8.31578 -3.30389,-16.29208 -9.18403,-22.17222 -5.88014,-5.88014 -13.85644,-9.18403 -22.17222,-9.18403 -8.31577,0 -16.29207,3.30389 -22.17221,9.18403 -5.88014,5.88014 -9.18404,13.85644 -9.18404,22.17222 0,8.31577 3.3039,16.29208 9.18404,22.17222 5.88014,5.88014 13.85644,9.18403 22.17221,9.18403 z"
             style="fill:#ffffff;stroke:#000000;stroke-linejoin:miter"
             id="path20" />
        </g>
        <!-- ● -->
        <g
           transform="matrix(0.4,0,0,-0.4,250.58636,335.232)"
           id="g21">
          <defs
             id="defs20">
            <path
               id="DejaVuSans-25cf"
               d="m 350,1656 q 0,653 328,1222 325,566 894,894 566,328 1222,328 653,0 1219,-328 568,-328 893,-894 328,-569 328,-1222 0,-653 -328,-1222 -325,-565 -893,-893 -566,-329 -1219,-329 -656,0 -1222,329 -569,328 -894,893 -328,569 -328,1222 z"
               transform="scale(0.015625)" />
          </defs>
          <use
             xlink:href="#DejaVuSans-25cf"
             id="use21" />
        </g>
      </g>
      <g
         id="text_4"
         style="display:inline"
         transform="translate(0,0.51923077)">
        <!-- ラップ -->
        <text
           xml:space="preserve"
           id="text138"
           style="font-style:normal;font-variant:normal;font-weight:normal;font-stretch:normal;font-size:14.6667px;font-family:'Hiragino Maru Gothic Pro';-inkscape-font-specification:'Hiragino Maru Gothic Pro';text-align:start;writing-mode:lr-tb;direction:ltr;white-space:pre;shape-inside:url(#rect139);display:inline;fill:#000000;stroke-width:0.266667;stroke-linecap:butt;stroke-linejoin:round;stroke-dasharray:none"
           transform="matrix(0.75,0,0,0.75,-1.3846154,-0.17307692)"><tspan
             x="338.30859"
             y="469.81621"
             id="tspan5"><tspan
               style="stroke:#ffffff"
               id="tspan4">ラップ</tspan></tspan></text>
      </g>
      <g
         id="text_5">
        <g
           id="patch_5">
          <path
             d="m 339.05455,355.55075 c 8.31577,0 16.29207,-3.30389 22.17221,-9.18403 5.88014,-5.88014 9.18403,-13.85645 9.18403,-22.17222 0,-8.31578 -3.30389,-16.29208 -9.18403,-22.17222 -5.88014,-5.88014 -13.85644,-9.18403 -22.17221,-9.18403 -8.31578,0 -16.29208,3.30389 -22.17222,9.18403 -5.88014,5.88014 -9.18404,13.85644 -9.18404,22.17222 0,8.31577 3.3039,16.29208 9.18404,22.17222 5.88014,5.88014 13.85644,9.18403 22.17222,9.18403 z"
             style="fill:#ffffff;stroke:#000000;stroke-linejoin:miter"
             id="path24" />
        </g>
        <!-- ● -->
        <g
           style="fill:#ff0000"
           transform="matrix(0.4,0,0,-0.4,321.60454,335.232)"
           id="g25">
          <use
             xlink:href="#DejaVuSans-25cf"
             id="use25" />
        </g>
      </g>
      <g
         id="text_6"
         style="display:inline">
        <!-- 開始/停止 -->
        <text
           xml:space="preserve"
           style="font-style:normal;font-variant:normal;font-weight:300;font-stretch:normal;font-size:11px;font-family:'Hiragino Kaku Gothic Pro';-inkscape-font-specification:'Hiragino Kaku Gothic Pro Light';text-align:start;writing-mode:lr-tb;direction:ltr;text-anchor:start;fill:#000000;stroke-width:0.2;stroke-dasharray:none"
           x="315.26083"
           y="351.97598"
           id="text136"><tspan
             id="tspan136"
             style="font-style:normal;font-variant:normal;font-weight:normal;font-stretch:normal;font-size:11px;font-family:'Hiragino Maru Gothic Pro';-inkscape-font-specification:'Hiragino Maru Gothic Pro';stroke:#ffffff;stroke-width:0.2;stroke-dasharray:none"
             x="315.26083"
             y="351.97598"
             sodipodi:role="line">開始/停止</tspan></text>
      </g>
      <text
         xml:space="preserve"
         id="text139"
         style="font-style:normal;font-variant:normal;font-weight:normal;font-stretch:normal;font-size:14.6667px;font-family:'Hiragino Maru Gothic Pro';-inkscape-font-specification:'Hiragino Maru Gothic Pro';text-align:start;writing-mode:lr-tb;direction:ltr;white-space:pre;shape-inside:url(#rect140);display:inline;fill:#000000;stroke:#ffffff;stroke-width:0.266667;stroke-dasharray:none"
         transform="scale(0.75)" />
      <g
         id="text_7"
         style="display:inline">
        <g
           id="patch_6">
          <path
             d="M 246.7317,66.4475 H 360.3592 V 42.9625 H 246.7317 Z"
             style="fill:#bbbbbb;stroke:#bbbbbb;stroke-linejoin:miter"
             id="path30" />
        </g>
        <!-- ホーム（タイマー画面） -->
        <text
           xml:space="preserve"
           style="font-style:normal;font-variant:normal;font-weight:normal;font-stretch:normal;font-size:18px;font-family:'Hiragino Maru Gothic Pro';-inkscape-font-specification:'Hiragino Maru Gothic Pro';text-align:start;writing-mode:lr-tb;direction:ltr;text-anchor:start;fill:#000000;stroke:#ffffff;stroke-width:0.2;stroke-dasharray:none"
           x="249.4668"
           y="61.29755"
           id="text141"><tspan
             sodipodi:role="line"
             id="tspan141"
             style="font-size:18px;stroke-width:0.2"
             x="249.4668"
             y="61.29755">タイマー画面</tspan></text>
      </g>
    </g>
    <g
       id="axes_2"
       style="display:inline">
      <g
         id="patch_7"
         style="display:inline">
        <path
           d="m 658.63636,490.464 h 142.03637 q 35.50909,0 35.50909,-22.176 V 113.472 q 0,-22.176 -35.50909,-22.176 H 658.63636 q -35.50909,0 -35.50909,22.176 v 354.816 q 0,22.176 35.50909,22.176 z"
           clip-path="url(#p5c0afe0c50)"
           style="fill:#ffffff;stroke:#000000;stroke-width:2;stroke-linejoin:miter"
           id="path41" />
      </g>
      <g
         id="text_8"
         style="display:inline">
        <g
           id="patch_8"
           transform="matrix(1.3569866,0,0,0.99258984,-256.67549,0.81221973)">
          <path
             d="m 704.58908,120.44356 h 50.13093 V 98.774187 h -50.13093 z"
             style="fill:#d3d3d3;stroke:#000000;stroke-linejoin:miter"
             id="path42" />
        </g>
        <!-- ラップ一覧 -->
        <text
           xml:space="preserve"
           id="text142"
           style="font-style:normal;font-variant:normal;font-weight:normal;font-stretch:normal;font-size:14.6667px;font-family:'Hiragino Maru Gothic Pro';-inkscape-font-specification:'Hiragino Maru Gothic Pro';text-align:start;writing-mode:lr-tb;direction:ltr;white-space:pre;shape-inside:url(#rect142);display:inline;fill:#000000;stroke:#ffffff;stroke-width:0.266667;stroke-linecap:butt;stroke-linejoin:round;stroke-dasharray:none"
           transform="matrix(0.75,0,0,0.75,-1.9006993,4.7517483)"><tspan
             x="937.67773"
             y="145.88847"
             id="tspan6">ラップタイム</tspan></text>
      </g>
      <g
         id="text_9"
         style="display:inline">
        <!-- 1. 01:32 -->
        <g
           style="fill:#333333"
           transform="matrix(0.18,0,0,-0.18,665.73818,168.912)"
           id="g54">
          <defs
             id="defs46">
            <path
               id="DejaVuSans-2e"
               d="m 684,794 h 660 V 0 H 684 Z"
               transform="scale(0.015625)" />
            <path
               id="DejaVuSans-20"
               transform="scale(0.015625)"
               d="" />
          </defs>
          <use
             xlink:href="#DejaVuSans-31"
             id="use47" />
          <use
             xlink:href="#DejaVuSans-2e"
             x="63.623047"
             id="use48" />
          <use
             xlink:href="#DejaVuSans-20"
             x="95.410156"
             id="use49" />
          <use
             xlink:href="#DejaVuSans-30"
             x="127.19727"
             id="use50" />
          <use
             xlink:href="#DejaVuSans-31"
             x="190.82031"
             id="use51" />
          <use
             xlink:href="#DejaVuSans-3a"
             x="254.44336"
             id="use52" />
          <use
             xlink:href="#DejaVuSans-33"
             x="288.13477"
             id="use53" />
          <use
             xlink:href="#DejaVuSans-32"
             x="351.75781"
             id="use54" />
        </g>
      </g>
      <g
         id="text_10"
         style="display:inline">
        <!-- [削除] [マーク❌] -->
        <g
           style="display:inline;fill:#333333"
           transform="matrix(0.14,0,0,-0.14,665.73818,191.088)"
           id="g65">
          <defs
             id="defs54">
            <path
               id="DejaVuSans-5b"
               d="M 550,4863 H 1875 V 4416 H 1125 V -397 h 750 V -844 H 550 Z"
               transform="scale(0.015625)" />
            <path
               id="DejaVuSans-524a"
               d="m 319,-1131 v 5644 h 3200 v -5644 z m 359,356 H 3163 V 4153 H 678 Z"
               transform="scale(0.015625)" />
            <path
               id="DejaVuSans-9664"
               d="m 319,-1131 v 5644 h 3200 v -5644 z m 359,356 H 3163 V 4153 H 678 Z"
               transform="scale(0.015625)" />
            <path
               id="DejaVuSans-5d"
               d="M 1947,4863 V -844 H 622 v 447 h 747 V 4416 H 622 v 447 z"
               transform="scale(0.015625)" />
            <path
               id="DejaVuSans-30af"
               d="m 319,-1131 v 5644 h 3200 v -5644 z m 359,356 H 3163 V 4153 H 678 Z"
               transform="scale(0.015625)" />
            <path
               id="DejaVuSans-274c"
               d="m 319,-1131 v 5644 h 3200 v -5644 z m 359,356 H 3163 V 4153 H 678 Z"
               transform="scale(0.015625)" />
          </defs>
          <use
             xlink:href="#DejaVuSans-5b"
             id="use55" />
          <use
             xlink:href="#DejaVuSans-5d"
             x="159.0332"
             id="use58" />
          <use
             xlink:href="#DejaVuSans-20"
             x="198.04688"
             id="use59" />
          <use
             xlink:href="#DejaVuSans-5b"
             x="229.83398"
             id="use60" />
          <use
             xlink:href="#DejaVuSans-5d"
             x="508.88672"
             id="use65" />
          <text
             xml:space="preserve"
             id="text143"
             style="font-style:normal;font-variant:normal;font-weight:normal;font-stretch:normal;font-size:12px;font-family:'Hiragino Maru Gothic Pro';-inkscape-font-specification:'Hiragino Maru Gothic Pro';text-align:start;writing-mode:lr-tb;direction:ltr;white-space:pre;shape-inside:url(#rect143);display:inline;fill:#000000;stroke:#ffffff;stroke-width:0.266667;stroke-linecap:butt;stroke-linejoin:round;stroke-dasharray:none"
             transform="matrix(5.3571429,0,0,-5.3571429,-4734.9081,1344.5497)"><tspan
               x="890.16016"
               y="249.64789"
               id="tspan7">削除</tspan></text>
          <text
             xml:space="preserve"
             id="text143-98"
             style="font-style:normal;font-variant:normal;font-weight:normal;font-stretch:normal;font-size:12px;font-family:'Hiragino Maru Gothic Pro';-inkscape-font-specification:'Hiragino Maru Gothic Pro';text-align:start;writing-mode:lr-tb;direction:ltr;white-space:pre;shape-inside:url(#rect143-5);display:inline;fill:#000000;stroke:#ffffff;stroke-width:0.266667;stroke-linecap:butt;stroke-linejoin:round;stroke-dasharray:none"
             transform="matrix(5.3571429,0,0,-5.3571429,-4736.7886,871.47757)"><tspan
               x="890.16016"
               y="249.64789"
               id="tspan9"><tspan
                 style="fill:#808080"
                 id="tspan8">削除済</tspan></tspan></text>
          <text
             xml:space="preserve"
             transform="matrix(5.3571429,0,0,-5.3571429,-4745.0904,1358.1261)"
             id="text144"
             style="font-style:normal;font-variant:normal;font-weight:normal;font-stretch:normal;font-size:12px;font-family:'Hiragino Maru Gothic Pro';-inkscape-font-specification:'Hiragino Maru Gothic Pro';text-align:start;writing-mode:lr-tb;direction:ltr;white-space:pre;shape-inside:url(#rect144);display:inline;fill:#000000;stroke:#ffffff;stroke-width:0.266667;stroke-dasharray:none"><tspan
               x="934.50977"
               y="252.18109"
               id="tspan10">マーク✕</tspan></text>
        </g>
      </g>
      <g
         id="text_11">
        <!-- 2. 00:10 -->
        <g
           style="fill:#ff0000"
           transform="matrix(0.18,0,0,-0.18,665.73818,235.44)"
           id="g73">
          <use
             xlink:href="#DejaVuSans-32"
             id="use66" />
          <use
             xlink:href="#DejaVuSans-2e"
             x="63.623047"
             id="use67" />
          <use
             xlink:href="#DejaVuSans-20"
             x="95.410156"
             id="use68" />
          <use
             xlink:href="#DejaVuSans-30"
             x="127.19727"
             id="use69" />
          <use
             xlink:href="#DejaVuSans-30"
             x="190.82031"
             id="use70" />
          <use
             xlink:href="#DejaVuSans-3a"
             x="254.44336"
             id="use71" />
          <use
             xlink:href="#DejaVuSans-31"
             x="288.13477"
             id="use72" />
          <use
             xlink:href="#DejaVuSans-30"
             x="351.75781"
             id="use73" />
        </g>
      </g>
      <g
         id="text_12"
         style="display:inline">
        <!-- [削除済] -->
        <g
           style="fill:#808080"
           transform="matrix(0.14,0,0,-0.14,665.73818,257.616)"
           id="g78">
          <defs
             id="defs73">
            <path
               id="DejaVuSans-6e08"
               d="m 319,-1131 v 5644 h 3200 v -5644 z m 359,356 H 3163 V 4153 H 678 Z"
               transform="scale(0.015625)" />
          </defs>
          <use
             xlink:href="#DejaVuSans-5b"
             id="use74" />
          <use
             xlink:href="#DejaVuSans-5d"
             x="219.04297"
             id="use78" />
        </g>
      </g>
      <g
         id="text_13">
        <!-- 3. 02:05 -->
        <g
           style="fill:#333333"
           transform="matrix(0.18,0,0,-0.18,665.73818,301.968)"
           id="g86">
          <use
             xlink:href="#DejaVuSans-33"
             id="use79" />
          <use
             xlink:href="#DejaVuSans-2e"
             x="63.623047"
             id="use80" />
          <use
             xlink:href="#DejaVuSans-20"
             x="95.410156"
             id="use81" />
          <use
             xlink:href="#DejaVuSans-30"
             x="127.19727"
             id="use82" />
          <use
             xlink:href="#DejaVuSans-32"
             x="190.82031"
             id="use83" />
          <use
             xlink:href="#DejaVuSans-3a"
             x="254.44336"
             id="use84" />
          <use
             xlink:href="#DejaVuSans-30"
             x="288.13477"
             id="use85" />
          <use
             xlink:href="#DejaVuSans-35"
             x="351.75781"
             id="use86" />
        </g>
      </g>
      <g
         id="text_14"
         style="display:inline">
        <!-- [削除] [マーク] -->
        <g
           style="fill:#333333"
           transform="matrix(0.14,0,0,-0.14,665.73818,324.144)"
           id="g96">
          <use
             xlink:href="#DejaVuSans-5b"
             id="use87" />
          <use
             xlink:href="#DejaVuSans-5d"
             x="159.0332"
             id="use90" />
          <use
             xlink:href="#DejaVuSans-20"
             x="198.04688"
             id="use91" />
          <use
             xlink:href="#DejaVuSans-5b"
             x="229.83398"
             id="use92" />
          <use
             xlink:href="#DejaVuSans-5d"
             x="448.87695"
             id="use96" />
          <text
             xml:space="preserve"
             id="text143-4"
             style="font-style:normal;font-variant:normal;font-weight:normal;font-stretch:normal;font-size:12px;font-family:'Hiragino Maru Gothic Pro';-inkscape-font-specification:'Hiragino Maru Gothic Pro';text-align:start;writing-mode:lr-tb;direction:ltr;white-space:pre;shape-inside:url(#rect143-3);display:inline;fill:#000000;stroke:#ffffff;stroke-width:0.266667;stroke-linecap:butt;stroke-linejoin:round;stroke-dasharray:none"
             transform="matrix(5.3571429,0,0,-5.3571429,-4738.347,1345.9685)"><tspan
               x="890.16016"
               y="249.64789"
               id="tspan11">削除</tspan></text>
          <text
             xml:space="preserve"
             transform="matrix(5.3571429,0,0,-5.3571429,-4748.5293,1359.5449)"
             id="text144-4"
             style="font-style:normal;font-variant:normal;font-weight:normal;font-stretch:normal;font-size:12px;font-family:'Hiragino Maru Gothic Pro';-inkscape-font-specification:'Hiragino Maru Gothic Pro';text-align:start;writing-mode:lr-tb;direction:ltr;white-space:pre;shape-inside:url(#rect144-7);display:inline;fill:#000000;stroke:#ffffff;stroke-width:0.266667;stroke-linecap:butt;stroke-linejoin:round;stroke-dasharray:none"><tspan
               x="934.50977"
               y="252.18109"
               id="tspan12">マーク</tspan></text>
        </g>
      </g>
      <g
         id="text_15">
        <!-- 4. 01:40 -->
        <g
           style="fill:#333333"
           transform="matrix(0.18,0,0,-0.18,665.73818,368.496)"
           id="g104">
          <defs
             id="defs96">
            <path
               id="DejaVuSans-34"
               d="M 2419,4116 825,1625 h 1594 z m -166,550 h 794 V 1625 h 666 V 1100 H 3047 V 0 H 2419 V 1100 H 313 v 609 z"
               transform="scale(0.015625)" />
          </defs>
          <use
             xlink:href="#DejaVuSans-34"
             id="use97" />
          <use
             xlink:href="#DejaVuSans-2e"
             x="63.623047"
             id="use98" />
          <use
             xlink:href="#DejaVuSans-20"
             x="95.410156"
             id="use99" />
          <use
             xlink:href="#DejaVuSans-30"
             x="127.19727"
             id="use100" />
          <use
             xlink:href="#DejaVuSans-31"
             x="190.82031"
             id="use101" />
          <use
             xlink:href="#DejaVuSans-3a"
             x="254.44336"
             id="use102" />
          <use
             xlink:href="#DejaVuSans-34"
             x="288.13477"
             id="use103" />
          <use
             xlink:href="#DejaVuSans-30"
             x="351.75781"
             id="use104" />
        </g>
      </g>
      <g
         id="text_16"
         style="display:inline">
        <!-- [削除] [マーク] -->
        <g
           style="fill:#333333"
           transform="matrix(0.14,0,0,-0.14,665.73818,390.672)"
           id="g114">
          <use
             xlink:href="#DejaVuSans-5b"
             id="use105" />
          <use
             xlink:href="#DejaVuSans-5d"
             x="159.0332"
             id="use108" />
          <use
             xlink:href="#DejaVuSans-20"
             x="198.04688"
             id="use109" />
          <use
             xlink:href="#DejaVuSans-5b"
             x="229.83398"
             id="use110" />
          <use
             xlink:href="#DejaVuSans-5d"
             x="448.87695"
             id="use114" />
          <text
             xml:space="preserve"
             id="text143-9"
             style="font-style:normal;font-variant:normal;font-weight:normal;font-stretch:normal;font-size:12px;font-family:'Hiragino Maru Gothic Pro';-inkscape-font-specification:'Hiragino Maru Gothic Pro';text-align:start;writing-mode:lr-tb;direction:ltr;white-space:pre;shape-inside:url(#rect143-0);display:inline;fill:#000000;stroke:#ffffff;stroke-width:0.266667;stroke-linecap:butt;stroke-linejoin:round;stroke-dasharray:none"
             transform="matrix(5.3571429,0,0,-5.3571429,-4738.4145,1346.0536)"><tspan
               x="890.16016"
               y="249.64789"
               id="tspan13">削除</tspan></text>
          <text
             xml:space="preserve"
             transform="matrix(5.3571429,0,0,-5.3571429,-4748.5968,1359.63)"
             id="text144-44"
             style="font-style:normal;font-variant:normal;font-weight:normal;font-stretch:normal;font-size:12px;font-family:'Hiragino Maru Gothic Pro';-inkscape-font-specification:'Hiragino Maru Gothic Pro';text-align:start;writing-mode:lr-tb;direction:ltr;white-space:pre;shape-inside:url(#rect144-79);display:inline;fill:#000000;stroke:#ffffff;stroke-width:0.266667;stroke-linecap:butt;stroke-linejoin:round;stroke-dasharray:none"><tspan
               x="934.50977"
               y="252.18109"
               id="tspan14">マーク</tspan></text>
        </g>
      </g>
      <g
         id="text_17"
         style="display:inline">
        <g
           id="patch_9">
          <path
             d="m 678.46704,454.2395 h 102.375 q 4.80001,0 4.80001,-4.8 v -15.485 q 0,-4.8 -4.80001,-4.8 h -102.375 q -4.79999,0 -4.79999,4.8 v 15.485 q 0,4.8 4.79999,4.8 z"
             style="fill:none;stroke:#000000;stroke-linejoin:miter"
             id="path114" />
        </g>
        <!-- [CSVエクスポート] -->
        <g
           style="fill:#333333"
           transform="matrix(0.16,0,0,-0.16,678.46704,446.112)"
           id="g125">
          <defs
             id="defs114">
            <path
               id="DejaVuSans-43"
               d="m 4122,4306 v -665 q -319,297 -680,443 -361,147 -767,147 -800,0 -1225,-489 -425,-489 -425,-1414 0,-922 425,-1411 425,-489 1225,-489 406,0 767,147 361,147 680,444 V 359 Q 3791,134 3420,21 3050,-91 2638,-91 1578,-91 968,557 359,1206 359,2328 q 0,1125 609,1773 610,649 1670,649 418,0 788,-111 371,-111 696,-333 z"
               transform="scale(0.015625)" />
            <path
               id="DejaVuSans-53"
               d="m 3425,4513 v -616 q -359,172 -678,256 -319,85 -616,85 -515,0 -795,-200 -280,-200 -280,-569 0,-310 186,-468 186,-157 705,-254 l 381,-78 q 706,-135 1042,-474 336,-339 336,-907 0,-679 -455,-1029 -454,-350 -1332,-350 -331,0 -705,75 -373,75 -773,222 v 650 q 384,-215 753,-325 369,-109 725,-109 540,0 834,212 294,213 294,607 0,343 -211,537 -211,194 -692,291 l -385,75 q -706,140 -1022,440 -315,300 -315,835 0,619 436,975 436,356 1201,356 329,0 669,-60 341,-59 697,-177 z"
               transform="scale(0.015625)" />
            <path
               id="DejaVuSans-56"
               d="M 1831,0 50,4666 H 709 L 2188,738 3669,4666 h 656 L 2547,0 Z"
               transform="scale(0.015625)" />
            <path
               id="DejaVuSans-30a8"
               d="m 319,-1131 v 5644 h 3200 v -5644 z m 359,356 H 3163 V 4153 H 678 Z"
               transform="scale(0.015625)" />
            <path
               id="DejaVuSans-30b9"
               d="m 319,-1131 v 5644 h 3200 v -5644 z m 359,356 H 3163 V 4153 H 678 Z"
               transform="scale(0.015625)" />
            <path
               id="DejaVuSans-30dd"
               d="m 319,-1131 v 5644 h 3200 v -5644 z m 359,356 H 3163 V 4153 H 678 Z"
               transform="scale(0.015625)" />
            <path
               id="DejaVuSans-30c8"
               d="m 319,-1131 v 5644 h 3200 v -5644 z m 359,356 H 3163 V 4153 H 678 Z"
               transform="scale(0.015625)" />
          </defs>
          <use
             xlink:href="#DejaVuSans-5b"
             id="use115" />
          <use
             xlink:href="#DejaVuSans-5d"
             x="600.78125"
             id="use125" />
          <text
             xml:space="preserve"
             id="text143-8"
             style="font-style:normal;font-variant:normal;font-weight:normal;font-stretch:normal;font-size:14.6667px;font-family:'Hiragino Maru Gothic Pro';-inkscape-font-specification:'Hiragino Maru Gothic Pro';text-align:start;writing-mode:lr-tb;direction:ltr;white-space:pre;shape-inside:url(#rect143-6);display:inline;fill:#000000;stroke:#ffffff;stroke-width:0.266667;stroke-linecap:butt;stroke-linejoin:round;stroke-dasharray:none"
             transform="matrix(4.6875,0,0,-4.6875,-4129.6103,1188.9932)"><tspan
               x="890.16016"
               y="252.32792"
               id="tspan15">CSVエクスポート</tspan></text>
        </g>
      </g>
      <g
         id="text_18"
         style="display:inline">
        <g
           id="patch_10"
           transform="matrix(1.7097147,0,0,0.98725976,-515.47066,0.69695489)">
          <path
             d="m 677.64205,66.4475 h 104.025 v -23.485 h -104.025 z"
             style="fill:#bbbbbb;stroke:#bbbbbb;stroke-linejoin:miter"
             id="path125" />
        </g>
        <!-- ラップタイム一覧画面 -->
        <text
           xml:space="preserve"
           style="font-style:normal;font-variant:normal;font-weight:normal;font-stretch:normal;font-size:18px;font-family:'Hiragino Maru Gothic Pro';-inkscape-font-specification:'Hiragino Maru Gothic Pro';text-align:start;writing-mode:lr-tb;direction:ltr;text-anchor:start;display:inline;fill:#000000;stroke:#ffffff;stroke-width:0.2;stroke-linecap:butt;stroke-linejoin:round;stroke-dasharray:none"
           x="643.64734"
           y="61.308189"
           id="text141-0"><tspan
             sodipodi:role="line"
             id="tspan141-1"
             style="font-size:18px;stroke-width:0.2"
             x="643.64734"
             y="61.308189">ラップタイム記録画面</tspan></text>
      </g>
    </g>
  </g>
  <defs
     id="defs136">
    <clipPath
       id="pd1c3f5468e">
      <rect
         x="126"
         y="69.12"
         width="355.090909"
         height="443.52"
         id="rect135" />
    </clipPath>
    <clipPath
       id="p5c0afe0c50">
      <rect
         x="552.109091"
         y="69.12"
         width="355.090909"
         height="443.52"
         id="rect136" />
    </clipPath>
  </defs>
</svg>
